:SAMPLES-PER-SECOND 30
:FULLY-SPECIFIED
:DEGREES
112
root  21.352 20.947 -2.24987 -163.398 86.2285 -160.277
RightUpLeg  -58.7817 -8.1201 7.90769
RightLeg  125.744 16.3016 -5.75191
RightFoot  -28.8235 1.21083 8.86645
RightToes  2.21189e-009 -3.18055e-015 8.94531e-016
Spine  45.9447 0.309917 -2.54725
Spine1  -1.1558 -0.980992 2.92179
HEad  -29.7474 -0.284656 6.27169
LeftShoulder1  0 0 -2.47967e-037
LeftArm  -13.571 -47.7863 -62.3879
LeftForeArm  -134.103 -48.4208 169.551
LeftHand  0.193697 4.57976 16.3645
RightShoulder  -2.48481e-017 0 -8.08114e-019
RightArm  -2.55454 35.7081 73.8138
RightForeArm  -92.47 46.9116 -153.932
RightHand  2.99765 -14.5541 -20.9894
LeftUpLeg  -61.1865 0.638163 1.35967
LeftLeg  125.719 -16.7895 2.95578
LeftFoot  -26.139 -1.67228 -14.3487
LeftToes  -2.77942e-009 -2.0471e-010 1.20669e-012
113
root  22.9791 22.6958 -2.24399 -152.263 86.7354 -149.858
RightUpLeg  -56.0245 -8.00116 7.71408
RightLeg  121.138 16.5628 -7.30323
RightFoot  -16.2659 0.229577 7.5132
RightToes  2.21189e-009 -3.18055e-015 8.94531e-016
Spine  43.2223 -0.122527 -2.32742
Spine1  -1.83282 -1.12217 1.67275
HEad  -24.4652 -0.240848 6.36856
LeftShoulder1  0 0 -2.47967e-037
LeftArm  -13.3025 -45.9936 -61.3958
LeftForeArm  -135.7 -48.9138 169.308
LeftHand  0.345077 5.02136 15.3947
RightShoulder  -2.48481e-017 0 -8.08114e-019
RightArm  -2.26962 32.3825 74.652
RightForeArm  -93.0368 46.7412 -154.203
RightHand  2.92879 -14.4184 -20.6188
LeftUpLeg  -56.0537 1.22307 2.90593
LeftLeg  121.019 -16.3321 3.24954
LeftFoot  -18.1427 -0.647459 -14.4221
LeftToes  -2.77942e-009 -2.0471e-010 1.20669e-012
114
root  24.5384 24.0397 -2.26418 -149.028 87.7972 -146.43
RightUpLeg  -56.3063 -7.0971 6.49161
RightLeg  118.617 16.507 -8.05769
RightFoot  2.71133 -0.515736 4.3302
RightToes  2.21189e-009 -3.18055e-015 8.94531e-016
Spine  41.3769 -0.459513 -2.66667
Spine1  -1.58945 -1.27342 0.20129
HEad  -21.5534 0.223245 5.6907
LeftShoulder1  0 0 -2.47967e-037
LeftArm  -14.0619 -44.3399 -59.3447
LeftForeArm  -138.824 -48.4464 169.871
LeftHand  0.478231 5.50865 15.5233
RightShoulder  -2.48481e-017 0 -8.08114e-019
RightArm  -1.67791 30.9857 74.9285
RightForeArm  -94.7786 46.175 -155.078
RightHand  3.04704 -14.8942 -20.3613
LeftUpLeg  -53.2505 1.53742 3.46677
LeftLeg  117.771 -16.3305 3.95591
LeftFoot  -4.64632 0.935441 -12.301
LeftToes  -2.77942e-009 -2.0471e-010 1.20669e-012
115
root  25.9213 25.0013 -2.30107 -140.753 88.208 -137.457
RightUpLeg  -58.2677 -6.66564 6.0375
RightLeg  117.394 16.3488 -8.26072
RightFoot  9.13093 -0.171268 0.387413
RightToes  2.21189e-009 -3.18055e-015 8.94531e-016
Spine  40.9006 -0.69328 -2.59734
Spine1  -0.0196711 -1.50875 0.381841
HEad  -21.8221 0.794436 5.11329
LeftShoulder1  0 0 -2.47967e-037
LeftArm  -15.7754 -43.5668 -57.2962
LeftForeArm  -140.332 -47.8446 170.395
LeftHand  0.543838 5.77231 16.0103
RightShoulder  -2.48481e-017 0 -8.08114e-019
RightArm  -1.95953 31.7965 73.5842
RightForeArm  -95.5086 45.676 -155.765
RightHand  3.09123 -15.0731 -20.2658
LeftUpLeg  -53.3299 1.19747 3.9413
LeftLeg  116.192 -16.0662 3.87168
LeftFoot  10.404 1.28516 -6.62269
LeftToes  -2.77942e-009 -2.0471e-010 1.20669e-012
116
root  27.2038 25.8925 -2.34618 -136.894 88.1284 -133.364
RightUpLeg  -61.3592 -6.70003 6.12331
RightLeg  115.428 15.0029 -6.51489
RightFoot  3.41616 0.30228 -2.08275
RightToes  2.21189e-009 -3.18055e-015 8.94531e-016
Spine  41.6535 -1.02675 -1.78162
Spine1  0.453031 -1.58971 0.71626
HEad  -21.7927 0.519343 5.03293
LeftShoulder1  0 0 -2.47967e-037
LeftArm  -15.7447 -42.9299 -58.0744
LeftForeArm  -139.594 -47.8305 170.351
LeftHand  0.567937 5.81899 15.1742
RightShoulder  -2.48481e-017 0 -8.08114e-019
RightArm  -2.87919 32.3951 71.8478
RightForeArm  -95.3359 45.9188 -155.446
RightHand  2.94865 -14.7308 -19.7099
LeftUpLeg  -56.1278 0.794661 3.87426
LeftLeg  115.436 -15.1212 2.27955
LeftFoot  10.4635 0.509572 -1.88731
LeftToes  -2.77942e-009 -2.0471e-010 1.20669e-012
117
root  28.421 26.6755 -2.36407 -140.361 88.4362 -137.039
RightUpLeg  -65.2648 -6.40169 6.06459
RightLeg  111.409 12.746 -2.92558
RightFoot  -0.229211 0.0517746 -0.291622
RightToes  2.21189e-009 -3.18055e-015 8.94531e-016
Spine  43.4008 -1.18476 -1.43096
Spine1  -1.04484 -1.37944 0.24093
HEad  -20.2844 0.129217 5.01842
LeftShoulder1  0 0 -2.47967e-037
LeftArm  -14.2071 -41.9686 -60.5107
LeftForeArm  -138.492 -48.4062 169.875
LeftHand  0.638917 5.99017 13.574
RightShoulder  -2.48481e-017 0 -8.08114e-019
RightArm  -3.03114 32.0377 71.6349
RightForeArm  -95.099 46.6565 -154.466
RightHand  2.87767 -14.7495 -18.749
LeftUpLeg  -60.3311 1.43464 2.70286
LeftLeg  113.538 -14.1752 0.697542
LeftFoot  1.21192 0.312876 -2.57086
LeftToes  -2.77942e-009 -2.0471e-010 1.20669e-012
118
root  29.5582 27.1456 -2.38508 -141.436 88.5327 -138.399
RightUpLeg  -68.7238 -6.644 6.60663
RightLeg  105.933 11.1059 0.818394
RightFoot  -5.11284 -0.20448 2.9744
RightToes  2.21189e-009 -3.18055e-015 8.94531e-016
Spine  45.48 -1.60577 -0.872141
Spine1  -2.1239 -1.31255 -0.418008
HEad  -19.6303 0.389262 4.81798
LeftShoulder1  0 0 -2.47967e-037
LeftArm  -13.013 -41.4379 -62.392
LeftForeArm  -136.772 -49.0657 169.278
LeftHand  0.562156 5.65131 12.9011
RightShoulder  -2.48481e-017 0 -8.08114e-019
RightArm  -3.1055 32.1814 72.2093
RightForeArm  -94.1675 47.1129 -153.779
RightHand  2.85921 -14.6949 -18.7044
LeftUpLeg  -64.7539 2.32295 1.00807
LeftLeg  109.429 -13.6418 -0.0571244
LeftFoot  -4.22496 0.328635 -4.19337
LeftToes  -2.77942e-009 -2.0471e-010 1.20669e-012
119
root  30.6148 27.2887 -2.40204 -150.012 88.5614 -146.877
RightUpLeg  -71.1159 -7.35032 7.25476
RightLeg  99.8671 10.6599 2.51551
RightFoot  -9.82546 -0.134242 4.80568
RightToes  2.21189e-009 -3.18055e-015 8.94531e-016
Spine  47.7486 -1.92773 -0.494059
Spine1  -1.83736 -1.31695 -0.702329
HEad  -20.6729 0.542851 4.83056
LeftShoulder1  0 0 -2.47967e-037
LeftArm  -12.5563 -41.7853 -63.5021
LeftForeArm  -136.172 -49.2449 169.103
LeftHand  0.507532 5.43509 12.877
RightShoulder  -2.48481e-017 0 -8.08114e-019
RightArm  -3.14031 32.8886 72.1748
RightForeArm  -93.5697 47.0253 -153.857
RightHand  2.89301 -14.613 -19.4233
LeftUpLeg  -68.4959 2.91746 -1.06152
LeftLeg  104.008 -13.2851 -0.579727
LeftFoot  -10.1239 0.116261 -5.23679
LeftToes  -2.77942e-009 -2.0471e-010 1.20669e-012
120
root  31.6866 26.8957 -2.40929 -168.629 88.3758 -164.876
RightUpLeg  -72.7893 -8.24282 7.45724
RightLeg  95.6075 10.9181 1.47847
RightFoot  -12.8656 -0.0138465 4.804
RightToes  2.21189e-009 -3.18055e-015 8.94531e-016
Spine  50.1098 -2.02674 -0.510956
Spine1  -1.17145 -1.28471 -0.530741
HEad  -22.3662 0.468124 4.71476
LeftShoulder1  0 0 -2.47967e-037
LeftArm  -12.0851 -42.5754 -64.4153
LeftForeArm  -136.201 -49.0258 169.265
LeftHand  0.452178 5.31137 13.9366
RightShoulder  -2.48481e-017 0 -8.08114e-019
RightArm  -3.13766 33.914 71.6772
RightForeArm  -93.5001 46.8235 -154.125
RightHand  2.94698 -14.6777 -19.8847
LeftUpLeg  -71.2201 3.24778 -3.16887
LeftLeg  98.7289 -13.3183 0.602666
LeftFoot  -14.8072 -0.123693 -6.38334
LeftToes  -2.77942e-009 -2.0471e-010 1.20669e-012
121
root  32.8521 25.8393 -2.39404 166.965 87.4589 171.725
RightUpLeg  -74.0108 -9.04143 6.37773
RightLeg  95.3896 10.9387 1.47758
RightFoot  -12.3113 -0.0255791 4.8194
RightToes  2.21189e-009 -3.18055e-015 8.94531e-016
Spine  52.1651 -2.41525 -0.820976
Spine1  -1.0318 -1.445 -0.766472
HEad  -23.7031 0.150072 4.43392
LeftShoulder1  0 0 -2.47967e-037
LeftArm  -11.5664 -43.0989 -65.1227
LeftForeArm  -136.204 -48.8918 169.362
LeftHand  0.420887 5.243 14.7041
RightShoulder  -2.48481e-017 0 -8.08114e-019
RightArm  -3.12652 34.4482 71.3817
RightForeArm  -93.4115 46.9051 -154.009
RightHand  3.0219 -14.9434 -19.8721
LeftUpLeg  -73.2402 2.27792 -4.92682
LeftLeg  95.5151 -13.5026 2.6425
LeftFoot  -17.5475 -0.289465 -6.89591
LeftToes  -2.77942e-009 -2.0471e-010 1.20669e-012
122
root  34.2377 24.1244 -2.39309 164.485 87.0399 170.023
RightUpLeg  -74.9371 -8.42782 5.49748
RightLeg  99.5521 10.3103 4.0354
RightFoot  -11.2917 0.0244062 -0.611482
RightToes  2.21189e-009 -3.18055e-015 8.94531e-016
Spine  52.8873 -2.74075 -0.250297
Spine1  -0.832609 -1.39659 -0.988159
HEad  -24.7208 -0.352176 4.225
LeftShoulder1  0 0 -2.47967e-037
LeftArm  -10.7698 -43.2625 -66.2125
LeftForeArm  -135.445 -48.8564 169.332
LeftHand  0.427809 5.26593 14.6454
RightShoulder  -2.48481e-017 0 -8.08114e-019
RightArm  -3.43721 34.2417 71.3608
RightForeArm  -93.1841 47.0766 -153.759
RightHand  3.05591 -15.0153 -20.0425
LeftUpLeg  -74.8166 0.375532 -4.46415
LeftLeg  95.528 -13.1682 0.656892
LeftFoot  -15.6314 -0.192895 -3.92165
LeftToes  -2.77942e-009 -2.0471e-010 1.20669e-012
123
root  35.7332 22.0917 -2.41584 168.828 87.2049 174.462
RightUpLeg  -76.2544 -7.36736 5.89291
RightLeg  106.827 10.3694 3.27711
RightFoot  -19.0871 -0.43522 -8.01183
RightToes  2.21189e-009 -3.18055e-015 8.94531e-016
Spine  52.2238 -2.8359 0.504923
Spine1  -0.824003 -1.26187 -0.854577
HEad  -25.9488 -0.370863 4.07242
LeftShoulder1  0 0 -2.47967e-037
LeftArm  -10.752 -43.1758 -66.9333
LeftForeArm  -135.686 -48.7555 169.422
LeftHand  0.42245 5.26326 14.8764
RightShoulder  -2.48481e-017 0 -8.08114e-019
RightArm  -3.53985 33.5834 72.2548
RightForeArm  -92.5544 46.9744 -153.854
RightHand  2.95492 -14.6503 -20.0843
LeftUpLeg  -77.301 -1.08518 -4.10861
LeftLeg  101.055 -13.4968 0.193331
LeftFoot  -18.2742 0.0952745 1.52491
LeftToes  -2.77942e-009 -2.0471e-010 1.20669e-012
